Patient4_TMGait_0pt4_03_left_42_GRF.mot
version=1
nRows=45
nColumns=19
inDegrees=no
endheader
time	F1x	F1y	F1z	M1x	M1y	M1z	F2x	F2y	F2z	M2x	M2y	M2z	EC1x	EC1y	EC1z	EC2x	EC2y	EC2z
55.64	-4.1185	4.7738	1.3495	-1.9332	-1.0477	4.7258	-36.4245	740.3966	-63.6304	286.9494	89.3435	901.633	-0.0592	0.0182	-0.0073	-0.0462	0.0165	0.9585
55.6534	-2.9584	3.7711	0.99185	-1.4958	-0.83599	3.9243	-32.6147	737.4453	-61.9737	285.7138	86.678	895.7485	-0.0592	0.0182	-0.0073	-0.0462	0.0165	0.9585
55.6669	-1.9277	2.9576	0.68191	-1.1404	-0.64306	3.2838	-28.4334	735.1588	-60.3718	284.7968	83.6792	889.7541	-0.0592	0.0182	-0.0073	-0.0462	0.0165	0.9585
55.6803	-1.108	2.3712	0.43725	-0.88394	-0.4819	2.8313	-24.0342	734.2623	-58.9453	284.4865	80.5104	884.5794	-0.0592	0.0182	-0.0073	-0.0462	0.0165	0.9585
55.6937	-0.52824	1.994	0.2638	-0.71847	-0.36379	2.5644	-19.5391	735.3086	-57.7767	284.9902	77.3337	881.0201	-0.0592	0.0182	-0.0073	-0.0462	0.0165	0.9585
55.7071	-0.158	1.7756	0.14479	-0.62451	-0.27772	2.4365	-15.0449	738.5286	-56.9092	286.3821	74.2835	879.5133	-0.0592	0.0182	-0.0073	-0.0462	0.0165	0.9585
55.7206	0.035432	1.6473	0.079632	-0.57511	-0.23132	2.3847	-10.6345	743.8168	-56.3512	288.5985	71.4559	880.1086	-0.0592	0.0182	-0.0073	-0.0462	0.0165	0.9585
55.734	0.093491	1.5377	0.046923	-0.54105	-0.21104	2.3298	-6.3601	750.766	-56.0783	291.4528	68.8998	882.4889	-0.0592	0.0182	-0.0073	-0.0462	0.0165	0.9585
55.7474	0.050521	1.3671	0.043886	-0.487	-0.22055	2.1678	-2.2737	758.7004	-56.0604	294.6523	66.6494	886.0171	-0.0592	0.0182	-0.0073	-0.0462	0.0165	0.9585
55.7609	-0.066556	1.0648	0.052909	-0.38166	-0.25197	1.7964	1.5666	766.7478	-56.2719	297.8277	64.7352	889.8182	-0.0592	0.0182	-0.0073	-0.0462	0.0165	0.9585
55.7743	-0.22231	0.53506	0.070785	-0.19136	-0.30377	1.0874	5.097	773.9524	-56.6887	300.5798	63.18	892.9084	-0.0592	0.0182	-0.0073	-0.0462	0.0165	0.9585
55.7877	-0.38866	-0.32358	0.086385	0.11428	-0.36201	-0.067808	8.2448	779.4051	-57.2759	302.5347	61.987	894.3484	-0.0592	0.0182	-0.0073	-0.0462	0.0165	0.9585
55.8011	-0.5317	-1.5801	0.090468	0.55499	-0.4039	-1.749	10.9689	782.368	-57.9757	303.3999	61.1166	893.3677	-0.0592	0.0182	-0.0073	-0.0462	0.0165	0.9585
55.8146	-0.5987	-3.2364	0.072997	1.1311	-0.39389	-3.9545	13.2576	782.3681	-58.7299	302.9972	60.513	889.4766	-0.0592	0.0182	-0.0073	-0.0462	0.0165	0.9585
55.828	-0.51587	-5.1847	0.007373	1.8055	-0.27055	-6.5391	15.1361	779.2346	-59.5012	301.2792	60.1312	882.5025	-0.0592	0.0182	-0.0073	-0.0462	0.0165	0.9585
55.8414	-0.17962	-7.1399	-0.11382	2.4803	0.020327	-9.1376	16.6617	773.1648	-60.2882	298.348	59.9519	872.6606	-0.0592	0.0182	-0.0073	-0.0462	0.0165	0.9585
55.8549	0.53564	-8.5607	-0.31349	2.9667	0.5461	-11.0544	17.9233	764.7288	-61.1083	294.4513	59.966	860.5623	-0.0592	0.0182	-0.0073	-0.0462	0.0165	0.9585
55.8683	1.7529	-8.6079	-0.59626	2.9735	1.3525	-11.1908	19.0262	754.7226	-61.9875	289.9235	60.1673	847.053	-0.0592	0.0182	-0.0073	-0.0462	0.0165	0.9585
55.8817	3.5797	-6.0537	-0.96782	2.0823	2.4708	-7.9505	20.0614	743.9589	-62.9321	285.1036	60.5355	832.9868	-0.0592	0.0182	-0.0073	-0.0462	0.0165	0.9585
55.8951	6.0522	0.69948	-1.3903	-0.24749	3.8623	0.72653	21.1133	733.029	-63.9159	280.2451	61.0149	818.9602	-0.0592	0.0182	-0.0073	-0.0462	0.0165	0.9585
55.9086	9.077	13.5001	-1.7911	-4.6421	5.3988	17.2253	22.2224	722.1286	-64.8586	275.4425	61.5012	805.1506	-0.0592	0.0182	-0.0073	-0.0462	0.0165	0.9585
55.922	12.3269	34.1816	-2.0385	-11.7219	6.8002	43.9327	23.3649	710.885	-65.6307	270.5659	61.8574	791.1443	-0.0592	0.0182	-0.0073	-0.0462	0.0165	0.9585
55.9354	15.1496	64.0903	-1.9325	-21.9377	7.5832	82.6097	24.4242	698.3066	-66.0362	265.2457	61.9064	775.8854	-0.0592	0.0182	-0.0073	-0.0462	0.0165	0.9585
55.9489	16.4576	103.3234	-1.1959	-35.3121	7.0147	133.4107	25.2136	682.9486	-65.8303	258.9375	61.444	757.8522	-0.0592	0.0182	-0.0073	-0.0462	0.0165	0.9585
55.9623	14.948	149.9476	0.50517	-51.1698	4.2316	193.8766	25.5606	663.2686	-64.7502	251.06	60.2444	735.4124	-0.0592	0.0182	-0.0073	-0.0462	0.0165	0.9585
55.9757	10.0538	199.6835	3.4777	-68.0272	-1.3493	258.4804	25.3637	638.1266	-62.5875	241.1871	58.114	707.3516	-0.0592	0.0182	-0.0073	-0.0462	0.0165	0.9585
55.9891	3.0743	247.1145	8.0916	-84.0167	-9.6918	320.1119	24.6768	607.2548	-59.2876	229.2257	54.972	673.3481	-0.0592	0.0182	-0.0073	-0.0462	0.0165	0.9585
56.0026	-4.3521	288.8637	13.7799	-98.0128	-19.5021	374.1639	23.6953	571.5283	-55.0019	215.5047	50.9078	634.2613	-0.0592	0.0182	-0.0073	-0.0462	0.0165	0.9585
56.016	-11.1417	324.7329	19.7663	-109.9937	-29.4133	420.1604	22.6873	532.5951	-50.1029	200.6369	46.2091	591.7595	-0.0592	0.0182	-0.0073	-0.0462	0.0165	0.9585
56.0294	-16.7692	356.3062	25.3165	-120.5541	-38.3219	460.124	21.89	492.2278	-44.9994	185.2829	41.2058	547.6607	-0.0592	0.0182	-0.0073	-0.0462	0.0165	0.9585
56.0429	-21.0343	385.399	29.9171	-130.3626	-45.5094	496.4167	21.4255	451.8342	-40.0093	169.9657	36.1755	503.4271	-0.0592	0.0182	-0.0073	-0.0462	0.0165	0.9585
56.0563	-23.9652	413.2989	33.2534	-139.8877	-50.6034	530.6994	21.2532	412.2253	-35.272	154.9843	31.2705	459.921	-0.0592	0.0182	-0.0073	-0.0462	0.0165	0.9585
56.0697	-25.6733	440.6476	35.3044	-149.3497	-53.6211	563.7982	21.2157	373.6162	-30.8011	140.4148	26.556	417.3825	-0.0592	0.0182	-0.0073	-0.0462	0.0165	0.9585
56.0831	-26.2723	467.768	36.3108	-158.834	-54.9188	596.1112	21.0662	335.8557	-26.5614	126.1912	22.0837	375.6676	-0.0592	0.0182	-0.0073	-0.0462	0.0165	0.9585
56.0966	-25.9619	495.0062	36.7643	-168.4047	-55.1758	628.1243	20.526	298.6532	-22.5637	112.1909	17.9668	334.4793	-0.0592	0.0182	-0.0073	-0.0462	0.0165	0.9585
56.11	-24.9238	522.7859	37.1672	-178.1538	-55.0928	660.3803	19.3333	261.804	-18.8475	98.3251	14.3457	293.6109	-0.0592	0.0182	-0.0073	-0.0462	0.0165	0.9585
56.1234	-23.4665	551.5725	38.022	-188.1874	-55.3938	693.5184	17.3136	225.4335	-15.4829	84.6307	11.3646	253.2311	-0.0592	0.0182	-0.0073	-0.0462	0.0165	0.9585
56.1369	-21.9424	581.6884	39.6084	-198.5799	-56.5546	728.0085	14.4988	190.0852	-12.5215	71.3077	9.0838	213.9444	-0.0592	0.0182	-0.0073	-0.0462	0.0165	0.9585
56.1503	-20.6258	613.2305	42.0207	-209.339	-58.7853	764.0486	11.1087	156.6006	-9.9866	58.6744	7.463	176.672	-0.0592	0.0182	-0.0073	-0.0462	0.0165	0.9585
56.1637	-19.6853	645.9097	45.044	-220.3572	-61.8937	801.3447	7.5241	125.847	-7.8578	47.067	6.3572	142.3531	-0.0592	0.0182	-0.0073	-0.0462	0.0165	0.9585
56.1771	-19.1561	678.8823	48.402	-231.3457	-65.5497	838.8958	4.1249	98.4772	-6.1017	36.742	5.6013	111.7042	-0.0592	0.0182	-0.0073	-0.0462	0.0165	0.9585
56.1906	-19.0552	710.8118	51.7454	-241.8536	-69.3356	875.1066	1.1705	74.8242	-4.6629	27.8343	5.0426	85.112	-0.0592	0.0182	-0.0073	-0.0462	0.0165	0.9585
56.204	-19.3203	740.0965	54.8731	-251.3379	-72.9686	908.0584	-1.1996	54.9083	-3.4981	20.3574	4.578	62.6308	-0.0592	0.0182	-0.0073	-0.0462	0.0165	0.9585
56.2174	-19.8346	765.1915	57.6336	-259.2776	-76.226	935.8974	-2.9316	38.5737	-2.5599	14.2484	4.1324	44.1306	-0.0592	0.0182	-0.0073	-0.0462	0.0165	0.9585
56.2309	-20.456	784.8163	60.0302	-265.243	-79.0511	957.099	-3.9619	25.5398	-1.8085	9.3962	3.6407	29.3245	-0.0592	0.0182	-0.0073	-0.0462	0.0165	0.9585
